# xmcd CD database file
#
# Track frame offsets:
#	150
#	8776
#	22728
#	36094
#	50148
#	66067
#	79936
#	94273
#	108180
#	132198
#	150896
#	165132
#	178611
#
# Disc length: 2564 seconds
#
# Revision: 0
# Processed by: cddbd v1.5.2PL0 Copyright (c) Steve Scherf et al.
# Submitted via: CDex 1.51
#
DISCID=8e0a020d
DTITLE=The Boots - Back to the roots
DYEAR=2003
DGENRE=Blues
TTITLE0=Hippy hippy shake
TTITLE1=Atlantis
TTITLE2=The Bachelor
TTITLE3=Slow down
TTITLE4=Midnight
TTITLE5=It came out of the sky
TTITLE6=Strange brew
TTITLE7=Time is tight
TTITLE8=The Boots medley
TTITLE9=Be my baby
TTITLE10=Last date
TTITLE11=You can´t do that
TTITLE12=Half a boy and half a man
EXTD=YEAR: 2003
EXTT0=
EXTT1=
EXTT2=
EXTT3=
EXTT4=
EXTT5=
EXTT6=
EXTT7=
EXTT8=
EXTT9=
EXTT10=
EXTT11=
EXTT12=
PLAYORDER=
